HIERARCHY
ROOT Hips
{
	OFFSET -1.708771 99.123062 53.422287
	CHANNELS 6 Xposition Yposition Zposition Xrotation Yrotation Zrotation
	JOINT LeftUpLeg
	{
		OFFSET 8.910001 -6.269997 0.000000
		CHANNELS 6 Xposition Yposition Zposition Xrotation Yrotation Zrotation
		JOINT LeftLeg
		{
			OFFSET 5.198202 -44.464111 -3.164574
			CHANNELS 6 Xposition Yposition Zposition Xrotation Yrotation Zrotation
			JOINT LeftFoot
			{
				OFFSET 4.712270 -40.290306 -3.324795
				CHANNELS 6 Xposition Yposition Zposition Xrotation Yrotation Zrotation
				JOINT LeftToeBase
				{
					OFFSET 0.000008 -6.262319 12.954720
					CHANNELS 6 Xposition Yposition Zposition Xrotation Yrotation Zrotation
					JOINT LeftToeBaseEnd
					{
						OFFSET 0.000000 0.000000 7.999996
						CHANNELS 6 Xposition Yposition Zposition Xrotation Yrotation Zrotation
						End Site
						{
							OFFSET 0.000000 8.000001 0.000000
						}
					}
				}
			}
		}
	}
	JOINT RightUpLeg
	{
		OFFSET -8.910001 -6.269997 0.000000
		CHANNELS 6 Xposition Yposition Zposition Xrotation Yrotation Zrotation
		JOINT RightLeg
		{
			OFFSET -0.684916 -44.661736 -4.353573
			CHANNELS 6 Xposition Yposition Zposition Xrotation Yrotation Zrotation
			JOINT RightFoot
			{
				OFFSET -0.620998 -40.495686 -4.035122
				CHANNELS 6 Xposition Yposition Zposition Xrotation Yrotation Zrotation
				JOINT RightToeBase
				{
					OFFSET -0.001086 -6.262318 12.954750
					CHANNELS 6 Xposition Yposition Zposition Xrotation Yrotation Zrotation
					JOINT RightToeBaseEnd
					{
						OFFSET -0.000670 -0.000406 8.000000
						CHANNELS 6 Xposition Yposition Zposition Xrotation Yrotation Zrotation
						End Site
						{
							OFFSET 0.000000 8.000002 0.000404
						}
					}
				}
			}
		}
	}
	JOINT Spine
	{
		OFFSET 0.000000 7.000000 0.000000
		CHANNELS 6 Xposition Yposition Zposition Xrotation Yrotation Zrotation
		JOINT Spine1
		{
			OFFSET 0.061653 12.513191 -1.964828
			CHANNELS 3 Xrotation Yrotation Zrotation
			JOINT Spine2
			{
				OFFSET 0.031167 12.627617 -0.993256
				CHANNELS 3 Xrotation Yrotation Zrotation
				JOINT LeftShoulder
				{
					OFFSET 7.000558 14.254959 -0.017727
					CHANNELS 6 Xposition Yposition Zposition Xrotation Yrotation Zrotation
					JOINT LeftArm
					{
						OFFSET 10.707251 -0.000275 0.000000
						CHANNELS 6 Xposition Yposition Zposition Xrotation Yrotation Zrotation
						JOINT LeftForeArm
						{
							OFFSET 27.305470 -0.001083 0.000008
							CHANNELS 6 Xposition Yposition Zposition Xrotation Yrotation Zrotation
							JOINT LeftHand
							{
								OFFSET 26.697147 -0.001038 -0.000004
								CHANNELS 6 Xposition Yposition Zposition Xrotation Yrotation Zrotation
								JOINT LeftHandThumb1
								{
									OFFSET 4.348732 -0.793335 4.283424
									CHANNELS 6 Xposition Yposition Zposition Xrotation Yrotation Zrotation
									JOINT LeftHandThumb2
									{
										OFFSET 2.512566 -0.535324 0.708122
										CHANNELS 6 Xposition Yposition Zposition Xrotation Yrotation Zrotation
										JOINT LeftHandThumb3
										{
											OFFSET 2.543137 -0.000107 0.000011
											CHANNELS 6 Xposition Yposition Zposition Xrotation Yrotation Zrotation
											JOINT LeftHandThumb4
											{
												OFFSET 2.666748 -0.000092 -0.000008
												CHANNELS 6 Xposition Yposition Zposition Xrotation Yrotation Zrotation
												End Site
												{
													OFFSET 0.000092 2.666748 -0.003315
												}
											}
										}
									}
								}
								JOINT LeftHandIndex1
								{
									OFFSET 8.821983 0.203705 3.471420
									CHANNELS 6 Xposition Yposition Zposition Xrotation Yrotation Zrotation
									JOINT LeftHandIndex2
									{
										OFFSET 4.225319 -0.000168 -0.000263
										CHANNELS 6 Xposition Yposition Zposition Xrotation Yrotation Zrotation
										JOINT LeftHandIndex3
										{
											OFFSET 2.652321 -0.000214 -0.092785
											CHANNELS 6 Xposition Yposition Zposition Xrotation Yrotation Zrotation
											JOINT LeftHandIndex4
											{
												OFFSET 1.953438 -0.000229 -0.136719
												CHANNELS 6 Xposition Yposition Zposition Xrotation Yrotation Zrotation
												End Site
												{
													OFFSET 0.000046 1.958221 -0.002434
												}
											}
										}
									}
								}
								JOINT LeftHandMiddle1
								{
									OFFSET 8.809906 0.502182 1.304062
									CHANNELS 6 Xposition Yposition Zposition Xrotation Yrotation Zrotation
									JOINT LeftHandMiddle2
									{
										OFFSET 4.863251 -0.000183 0.000000
										CHANNELS 6 Xposition Yposition Zposition Xrotation Yrotation Zrotation
										JOINT LeftHandMiddle3
										{
											OFFSET 2.765236 -0.000107 -0.000172
											CHANNELS 6 Xposition Yposition Zposition Xrotation Yrotation Zrotation
											JOINT LeftHandMiddle4
											{
												OFFSET 2.005630 -0.000076 -0.000252
												CHANNELS 6 Xposition Yposition Zposition Xrotation Yrotation Zrotation
												End Site
												{
													OFFSET 0.000076 2.005630 -0.002495
												}
											}
										}
									}
								}
								JOINT LeftHandRing1
								{
									OFFSET 8.893776 0.378601 -0.793629
									CHANNELS 6 Xposition Yposition Zposition Xrotation Yrotation Zrotation
									JOINT LeftHandRing2
									{
										OFFSET 4.537758 -0.000183 -0.000282
										CHANNELS 6 Xposition Yposition Zposition Xrotation Yrotation Zrotation
										JOINT LeftHandRing3
										{
											OFFSET 2.304527 -0.000092 -0.000286
											CHANNELS 6 Xposition Yposition Zposition Xrotation Yrotation Zrotation
											JOINT LeftHandRing4
											{
												OFFSET 1.923347 -0.000076 -0.000359
												CHANNELS 6 Xposition Yposition Zposition Xrotation Yrotation Zrotation
												End Site
												{
													OFFSET 0.000076 1.923340 -0.002392
												}
											}
										}
									}
								}
								JOINT LeftHandPinky1
								{
									OFFSET 8.882271 -0.316467 -2.489964
									CHANNELS 6 Xposition Yposition Zposition Xrotation Yrotation Zrotation
									JOINT LeftHandPinky2
									{
										OFFSET 3.044098 -0.000122 0.000000
										CHANNELS 6 Xposition Yposition Zposition Xrotation Yrotation Zrotation
										JOINT LeftHandPinky3
										{
											OFFSET 1.974503 -0.000107 0.000000
											CHANNELS 6 Xposition Yposition Zposition Xrotation Yrotation Zrotation
											JOINT LeftHandPinky4
											{
												OFFSET 1.666611 -0.000107 0.000000
												CHANNELS 6 Xposition Yposition Zposition Xrotation Yrotation Zrotation
												End Site
												{
													OFFSET 0.000130 1.666611 -0.002071
												}
											}
										}
									}
								}
							}
						}
					}
				}
				JOINT RightShoulder
				{
					OFFSET -6.999445 14.255493 -0.017727
					CHANNELS 6 Xposition Yposition Zposition Xrotation Yrotation Zrotation
					JOINT RightArm
					{
						OFFSET -10.707278 0.000839 0.000000
						CHANNELS 6 Xposition Yposition Zposition Xrotation Yrotation Zrotation
						JOINT RightForeArm
						{
							OFFSET -27.305599 0.001068 0.000000
							CHANNELS 6 Xposition Yposition Zposition Xrotation Yrotation Zrotation
							JOINT RightHand
							{
								OFFSET -26.696999 0.001038 -0.000004
								CHANNELS 6 Xposition Yposition Zposition Xrotation Yrotation Zrotation
								JOINT RightHandThumb1
								{
									OFFSET -4.348412 -0.793015 4.283806
									CHANNELS 6 Xposition Yposition Zposition Xrotation Yrotation Zrotation
									JOINT RightHandThumb2
									{
										OFFSET -2.512550 -0.535110 0.708344
										CHANNELS 6 Xposition Yposition Zposition Xrotation Yrotation Zrotation
										JOINT RightHandThumb3
										{
											OFFSET -2.541588 0.000214 0.088821
											CHANNELS 6 Xposition Yposition Zposition Xrotation Yrotation Zrotation
											JOINT RightHandThumb4
											{
												OFFSET -2.665123 0.000183 0.093136
												CHANNELS 6 Xposition Yposition Zposition Xrotation Yrotation Zrotation
												End Site
												{
													OFFSET 0.000061 2.666748 -0.003315
												}
											}
										}
									}
								}
								JOINT RightHandIndex1
								{
									OFFSET -8.821663 0.204391 3.472195
									CHANNELS 6 Xposition Yposition Zposition Xrotation Yrotation Zrotation
									JOINT RightHandIndex2
									{
										OFFSET -4.225319 0.000168 0.000114
										CHANNELS 6 Xposition Yposition Zposition Xrotation Yrotation Zrotation
										JOINT RightHandIndex3
										{
											OFFSET -2.652321 0.000214 0.092697
											CHANNELS 6 Xposition Yposition Zposition Xrotation Yrotation Zrotation
											JOINT RightHandIndex4
											{
												OFFSET -1.953445 0.000244 0.136658
												CHANNELS 6 Xposition Yposition Zposition Xrotation Yrotation Zrotation
												End Site
												{
													OFFSET 0.000076 1.958221 -0.002434
												}
											}
										}
									}
								}
								JOINT RightHandMiddle1
								{
									OFFSET -8.809753 0.502853 1.304836
									CHANNELS 6 Xposition Yposition Zposition Xrotation Yrotation Zrotation
									JOINT RightHandMiddle2
									{
										OFFSET -4.863251 0.000183 0.000134
										CHANNELS 6 Xposition Yposition Zposition Xrotation Yrotation Zrotation
										JOINT RightHandMiddle3
										{
											OFFSET -2.763550 0.000229 0.096584
											CHANNELS 6 Xposition Yposition Zposition Xrotation Yrotation Zrotation
											JOINT RightHandMiddle4
											{
												OFFSET -2.000740 0.000244 0.139965
												CHANNELS 6 Xposition Yposition Zposition Xrotation Yrotation Zrotation
												End Site
												{
													OFFSET 0.000076 2.005630 -0.002495
												}
											}
										}
									}
								}
								JOINT RightHandRing1
								{
									OFFSET -8.893814 0.379272 -0.792850
									CHANNELS 6 Xposition Yposition Zposition Xrotation Yrotation Zrotation
									JOINT RightHandRing2
									{
										OFFSET -4.537766 0.000183 0.000122
										CHANNELS 6 Xposition Yposition Zposition Xrotation Yrotation Zrotation
										JOINT RightHandRing3
										{
											OFFSET -2.303116 0.000183 0.080490
											CHANNELS 6 Xposition Yposition Zposition Xrotation Yrotation Zrotation
											JOINT RightHandRing4
											{
												OFFSET -1.918663 0.000244 0.134224
												CHANNELS 6 Xposition Yposition Zposition Xrotation Yrotation Zrotation
												End Site
												{
													OFFSET 0.000076 1.923355 -0.002392
												}
											}
										}
									}
								}
								JOINT RightHandPinky1
								{
									OFFSET -8.882507 -0.315781 -2.489185
									CHANNELS 6 Xposition Yposition Zposition Xrotation Yrotation Zrotation
									JOINT RightHandPinky2
									{
										OFFSET -3.047798 0.000122 0.000084
										CHANNELS 6 Xposition Yposition Zposition Xrotation Yrotation Zrotation
										JOINT RightHandPinky3
										{
											OFFSET -1.975693 0.000168 0.069050
											CHANNELS 6 Xposition Yposition Zposition Xrotation Yrotation Zrotation
											JOINT RightHandPinky4
											{
												OFFSET -1.664574 0.000244 0.116447
												CHANNELS 6 Xposition Yposition Zposition Xrotation Yrotation Zrotation
												End Site
												{
													OFFSET 0.000130 1.668640 -0.002083
												}
											}
										}
									}
								}
							}
						}
					}
				}
				JOINT Neck
				{
					OFFSET 0.000494 12.666672 -0.015751
					CHANNELS 6 Xposition Yposition Zposition Xrotation Yrotation Zrotation
					JOINT Head
					{
						OFFSET 0.000390 10.000000 -0.012436
						CHANNELS 3 Xrotation Yrotation Zrotation
						JOINT HeadEnd
						{
							OFFSET 0.000780 19.999985 -0.024872
							CHANNELS 3 Xrotation Yrotation Zrotation
							End Site
							{
								OFFSET 0.000780 19.999985 -0.024872
							}
						}
					}
				}
			}
		}
	}
}
MOTION
Frames: 3
Frame Time: 0.008333
0.000000 99.992928 0.000000 -0.000000 0.000000 -0.000000 8.910002 -6.269994 0.000001 -4.082342 0.252786 -6.650188 5.198203 -44.464100 -3.164573 -0.558318 -0.051785 -0.001691 4.712271 -40.290310 -3.324799 4.642461 0.273670 6.648779 0.000010 -6.262318 12.954720 -0.000000 -0.000000 0.000000 0.000000 -0.000000 7.999996 0.000000 0.000000 -0.000000 -8.910002 -6.269993 0.000001 -5.605935 -0.042903 0.874421 -0.684917 -44.661724 -4.353574 -0.040674 0.000110 -0.000145 -0.620999 -40.495686 -4.035125 5.646610 -0.042815 -0.874273 -0.001086 -6.262318 12.954753 0.000000 -0.000003 -0.000000 -0.000670 -0.000407 7.999992 0.000000 0.000000 -0.000000 -0.000000 7.000004 -0.000004 8.923652 0.021761 0.278880 -4.426212 0.005362 -0.138750 -4.426217 0.005362 -0.138750 7.000559 14.254990 -0.017727 0.000000 -0.000000 -0.000000 10.707249 -0.000290 -0.000000 -0.000002 -0.000015 -0.000007 27.305464 -0.001080 0.000004 0.000002 0.000025 0.000007 26.697155 -0.001053 -0.000007 0.000000 -0.000010 0.000000 4.348732 -0.793350 4.283421 0.000000 -0.000000 0.000000 2.512566 -0.535339 0.708118 0.000000 -0.000000 -0.000000 2.543129 -0.000137 0.000008 0.000000 -0.000000 -0.000000 2.666748 -0.000107 -0.000011 0.000000 0.000000 0.000000 8.821983 0.203690 3.471420 0.000000 0.000000 0.000000 4.225319 -0.000168 -0.000259 0.000000 -0.000000 0.000000 2.652321 -0.000214 -0.092781 -0.000000 -0.000000 -0.000000 1.953422 -0.000214 -0.136715 0.000000 -0.000001 0.000000 8.809906 0.502167 1.304058 0.000000 -0.000000 -0.000000 4.863258 -0.000214 0.000004 0.000000 0.000000 0.000000 2.765228 -0.000122 -0.000172 0.000000 -0.000000 0.000000 2.005623 -0.000076 -0.000256 0.000000 0.000000 -0.000000 8.893776 0.378586 -0.793633 0.000000 0.000000 -0.000000 4.537766 -0.000198 -0.000282 0.000000 0.000000 -0.000000 2.304535 -0.000076 -0.000290 0.000000 -0.000000 0.000000 1.923340 -0.000061 -0.000359 0.000000 0.000000 0.000000 8.882271 -0.316483 -2.489964 0.000000 -0.000000 0.000000 3.044098 -0.000122 0.000000 0.000000 0.000000 0.000000 1.974503 -0.000107 -0.000004 0.000000 -0.000000 -0.000000 1.666611 -0.000122 -0.000000 0.000000 -0.000000 -0.000000 -6.999445 14.255524 -0.017731 0.000000 -0.000000 -0.000001 -10.707275 0.000853 -0.000004 -0.000001 0.000005 0.000007 -27.305599 0.001064 -0.000004 -0.000006 -0.000015 -0.000007 -26.696991 0.001032 -0.000008 0.000007 0.000010 -0.000000 -4.348404 -0.793015 4.283798 0.000000 -0.000000 -0.000000 -2.512543 -0.535110 0.708336 -0.000000 -0.000000 -0.000000 -2.541580 0.000229 0.088818 0.000000 -0.000000 -0.000000 -2.665115 0.000198 0.093132 0.000000 -0.000000 -0.000000 -8.821655 0.204391 3.472187 0.000000 -0.000000 -0.000000 -4.225312 0.000137 0.000110 0.000000 -0.000000 0.000000 -2.652329 0.000214 0.092696 -0.000000 -0.000000 -0.000000 -1.953446 0.000259 0.136659 0.000000 -0.000000 -0.000000 -8.809753 0.502853 1.304832 -0.000000 -0.000000 -0.000000 -4.863235 0.000168 0.000133 0.000000 -0.000000 0.000000 -2.763535 0.000214 0.096585 0.000000 -0.000000 -0.000000 -2.000725 0.000229 0.139969 -0.000000 -0.000001 -0.000000 -8.893814 0.379272 -0.792858 -0.000000 -0.000000 -0.000000 -4.537758 0.000183 0.000118 0.000000 -0.000000 0.000000 -2.303108 0.000214 0.080495 0.000000 0.000001 -0.000000 -1.918656 0.000229 0.134225 0.000000 -0.000000 -0.000000 -8.882500 -0.315781 -2.489189 0.000000 -0.000000 -0.000000 -3.047798 0.000137 0.000084 -0.000000 -0.000000 -0.000000 -1.975692 0.000183 0.069054 -0.000000 0.000000 -0.000000 -1.664581 0.000259 0.116447 0.000000 -0.000000 0.000000 0.000494 12.666702 -0.015755 0.000000 -0.000000 -0.000000 0.000000 -0.000000 -0.000000 0.000000 -0.000000 -0.000000 
-1.704939 99.123215 53.409126 -0.122878 17.189307 0.081361 8.910003 -6.270005 0.000002 0.004772 0.007216 -0.001087 5.198204 -44.464115 -3.164572 -0.018708 -0.003036 0.000052 4.712269 -40.290302 -3.324797 0.012311 -0.001324 -0.004607 0.000007 -6.262319 12.954719 0.001761 0.000012 -0.000066 -0.000002 -0.000000 7.999996 0.000000 -0.000001 0.000000 -8.910002 -6.269988 -0.000007 0.003690 -0.004689 -0.002353 -0.684917 -44.661720 -4.353573 -0.013660 0.000231 0.000020 -0.620998 -40.495693 -4.035117 0.014673 0.004650 0.003134 -0.001087 -6.262317 12.954749 -0.003867 0.000293 -0.003609 -0.000673 -0.000406 7.999992 -0.000000 -0.000001 -0.000000 0.000000 7.000003 -0.000008 0.011827 0.000223 0.003634 -0.004142 0.000006 -0.000570 -0.004143 0.000054 -0.000565 7.000556 14.254972 -0.017723 -0.018517 -0.543443 3.253297 10.707251 -0.000247 0.000006 -16.529201 4.556249 -3.494788 27.305466 -0.001063 -0.000011 0.004983 -0.800627 -0.007024 26.697155 -0.001031 -0.000009 9.387006 1.253911 3.327105 4.348735 -0.793362 4.283413 0.000423 0.000471 -0.000041 2.512568 -0.535321 0.708118 0.000290 0.000474 0.000076 2.543128 -0.000137 0.000012 -0.000001 -0.000001 -0.000000 2.666751 -0.000122 -0.000016 -0.000001 0.000002 -0.000000 8.821991 0.203718 3.471423 0.000148 0.000009 -0.004067 4.225315 -0.000170 -0.000259 -0.000110 0.000051 -0.004047 2.652336 -0.000198 -0.092784 0.000000 -0.000001 -0.000000 1.953414 -0.000246 -0.136713 0.000001 -0.000003 -0.000001 8.809909 0.502188 1.304051 -0.000396 0.000176 -0.004279 4.863249 -0.000236 0.000000 -0.000530 0.000245 -0.004268 2.765234 -0.000092 -0.000177 -0.000000 -0.000003 -0.000000 2.005646 -0.000061 -0.000248 0.000001 0.000000 -0.000000 8.893775 0.378604 -0.793634 -0.001322 0.000738 -0.003608 4.537757 -0.000189 -0.000284 -0.000804 0.000350 -0.003770 2.304533 -0.000090 -0.000290 -0.000001 -0.000002 0.000000 1.923347 -0.000076 -0.000347 0.000001 -0.000002 -0.000001 8.882278 -0.316466 -2.489966 -0.002143 0.000815 -0.003494 3.044091 -0.000152 0.000008 -0.234638 0.090263 -0.628433 1.974501 -0.000123 -0.000014 0.000001 -0.000002 0.000000 1.666618 -0.000106 0.000002 -0.000001 0.000000 0.000000 -6.999446 14.255508 -0.017729 0.010942 0.319845 -2.213557 -10.707271 0.000810 0.000000 -6.767118 -2.734487 2.921501 -27.305601 0.001069 -0.000012 -0.006369 1.000061 0.008856 -26.696981 0.001045 -0.000012 6.156583 -1.083171 -1.416628 -4.348429 -0.793024 4.283799 0.000284 -0.000538 -0.000070 -2.512539 -0.535108 0.708333 0.000305 -0.000492 -0.000082 -2.541572 0.000244 0.088825 0.000000 0.000001 0.000000 -2.665123 0.000183 0.093131 0.000000 0.000000 -0.000000 -8.821671 0.204388 3.472185 -0.000116 0.000021 0.004069 -4.225322 0.000114 0.000113 -0.000113 -0.000051 0.004044 -2.652330 0.000214 0.092683 0.000000 -0.000002 -0.000000 -1.953446 0.000244 0.136663 -0.000000 -0.000001 -0.000000 -8.809762 0.502842 1.304823 -0.000554 -0.000203 0.004263 -4.863231 0.000144 0.000125 -0.000533 -0.000252 0.004252 -2.763550 0.000229 0.096581 0.000000 0.000000 0.000000 -2.000767 0.000229 0.139969 0.000000 0.000004 0.000000 -8.893822 0.379270 -0.792861 -0.001106 0.000023 0.003753 -4.537765 0.000182 0.000122 -0.000807 -0.000355 0.003768 -2.303124 0.000214 0.080492 0.000000 -0.000001 0.000000 -1.918637 0.000244 0.134235 -0.000000 0.000003 0.000000 -8.882516 -0.315800 -2.489193 -0.001379 -0.000803 0.003860 -3.047802 0.000119 0.000089 -0.235919 -0.090663 0.631529 -1.975686 0.000153 0.069044 -0.000000 -0.000001 -0.000000 -1.664580 0.000244 0.116444 -0.000000 0.000001 0.000000 0.000493 12.666679 -0.015747 0.017445 -0.008882 0.012370 -0.000446 -0.003934 -0.004026 0.000000 0.000000 -0.000000 
-1.694622 99.125122 53.347538 42.659845 90.835888 -42.816253 8.910005 -6.269984 0.000004 0.007614 0.058918 -0.013050 5.198204 -44.464100 -3.164573 -0.094028 -0.018248 0.000633 4.712276 -40.290310 -3.324799 0.067481 -0.027281 -0.019245 0.000007 -6.262318 12.954718 0.018118 0.000111 -0.000631 0.000002 -0.000000 7.999996 0.000000 -0.000000 0.000000 -8.909996 -6.269995 -0.000002 0.006733 -0.050731 -0.024861 -0.684914 -44.661724 -4.353570 -0.083235 0.002064 0.000700 -0.620998 -40.495682 -4.035116 0.082774 0.048294 0.035971 -0.001085 -6.262318 12.954750 -0.015402 0.001159 -0.014377 -0.000677 -0.000407 7.999992 -0.000000 -0.000000 -0.000000 0.000002 7.000001 -0.000009 0.076099 0.001771 0.026812 -0.030558 0.000479 -0.003872 -0.030564 0.000720 -0.003796 7.000554 14.254977 -0.017726 0.214480 -2.729778 16.299632 10.707247 -0.000284 0.000008 -89.775617 27.426015 -0.426758 27.305481 -0.001091 -0.000004 0.023592 -3.934175 -0.033866 26.697142 -0.001036 0.000003 46.849900 11.176852 13.659826 4.348727 -0.793347 4.283422 0.004638 0.005108 -0.000461 2.512558 -0.535359 0.708121 0.003165 0.005205 0.000834 2.543129 -0.000120 -0.000004 -0.000003 -0.000000 -0.000000 2.666748 -0.000106 -0.000015 -0.000002 -0.000000 -0.000000 8.821980 0.203710 3.471418 0.001634 0.000099 -0.044521 4.225317 -0.000170 -0.000252 -0.001220 0.000544 -0.044420 2.652315 -0.000212 -0.092774 -0.000001 0.000001 -0.000000 1.953432 -0.000234 -0.136719 0.000005 -0.000001 -0.000001 8.809905 0.502199 1.304061 -0.004317 0.001908 -0.046872 4.863264 -0.000183 0.000007 -0.005826 0.002709 -0.046680 2.765230 -0.000106 -0.000172 -0.000002 0.000000 -0.000000 2.005631 -0.000076 -0.000266 0.000000 0.000000 -0.000000 8.893767 0.378611 -0.793630 -0.014463 0.008092 -0.039486 4.537762 -0.000170 -0.000277 -0.008817 0.003824 -0.041249 2.304535 -0.000080 -0.000278 0.000006 0.000001 0.000000 1.923343 -0.000061 -0.000367 0.000001 -0.000000 -0.000001 8.882274 -0.316459 -2.489958 -0.023434 0.008920 -0.038218 3.044098 -0.000117 -0.000002 -1.171334 0.480603 -3.161390 1.974502 -0.000141 0.000001 0.000006 -0.000000 0.000000 1.666610 -0.000106 0.000007 0.000000 -0.000000 0.000000 -6.999449 14.255513 -0.017728 0.170763 1.585665 -11.080721 -10.707274 0.000849 -0.000000 -33.187920 -16.578022 11.141009 -27.305597 0.001078 0.000013 -0.033053 4.944010 0.044951 -26.696989 0.001018 0.000012 30.707636 -6.759752 -5.779692 -4.348409 -0.793018 4.283799 0.003105 -0.005826 -0.000766 -2.512537 -0.535137 0.708350 0.003332 -0.005467 -0.000889 -2.541580 0.000244 0.088813 0.000000 -0.000000 0.000000 -2.665146 0.000198 0.093142 0.000000 -0.000000 0.000000 -8.821654 0.204394 3.472189 -0.001271 0.000301 0.044542 -4.225320 0.000155 0.000119 -0.001228 -0.000529 0.044401 -2.652337 0.000199 0.092697 -0.000001 -0.000000 0.000000 -1.953438 0.000244 0.136654 0.000000 -0.000000 0.000000 -8.809755 0.502865 1.304837 -0.006056 -0.002225 0.046672 -4.863250 0.000175 0.000130 -0.005834 -0.002716 0.046607 -2.763544 0.000214 0.096589 -0.000000 -0.000001 0.000000 -2.000747 0.000244 0.139970 0.000000 0.000000 -0.000000 -8.893816 0.379298 -0.792858 -0.012104 0.000265 0.041074 -4.537738 0.000177 0.000119 -0.008828 -0.003844 0.041243 -2.303116 0.000168 0.080493 -0.000001 0.000000 0.000000 -1.918640 0.000214 0.134224 -0.000000 -0.000000 -0.000000 -8.882505 -0.315770 -2.489187 -0.015089 -0.008716 0.042250 -3.047800 0.000135 0.000082 -1.177635 -0.482846 3.176821 -1.975692 0.000183 0.069049 -0.000000 0.000000 -0.000000 -1.664581 0.000275 0.116452 -0.000001 0.000000 0.000000 0.000490 12.666688 -0.015750 0.098162 -0.064088 0.082700 0.008753 -0.032172 -0.017090 -0.000000 -0.000000 0.000000 
